<svg width="32" height="32" viewBox="0 0 32 32" xmlns="http://www.w3.org/2000/svg">
  <rect width="32" height="32" rx="6" fill="#4a5d4a"/>
  <path d="M 11 10 Q 11 8, 13 7.5 Q 15 7, 16 7.5 Q 17 8, 17.5 9 Q 18 10, 18.5 10.5 L 19 11.5 Q 19.5 12, 19.5 13 L 19.5 15 Q 19.3 16, 18.8 17 L 18 18 Q 17 18.5, 16 19 L 14 19.2 Q 13 19.2, 12 19 L 11 18.5 Q 10 18, 9.5 17 L 9 15.5 Q 8.5 14, 8.5 13 L 8.5 11.5 Q 9 10.5, 11 10 Z" fill="#f5f1e8"/>
  <circle cx="16" cy="11" r="1.5" fill="#4a5d4a"/>
  <text x="16" y="28" font-family="serif" font-size="8" font-weight="bold" fill="#f5f1e8" text-anchor="middle">DR</text>
</svg>
