<svg version="1.1" id="Layer_1" xmlns="http://www.w3.org/2000/svg" xmlns:xlink="http://www.w3.org/1999/xlink" x="0px" y="0px"
	 width="100%" viewBox="0 0 816 1024" enable-background="new 0 0 816 1024" xml:space="preserve">
<path fill="#000000" opacity="1.000000" stroke="none" 
	d="
M765.023560,513.886597 
	C762.796082,587.996887 763.021667,661.641052 763.380127,735.285645 
	C763.400391,739.442200 763.681152,743.608337 764.063171,747.749512 
	C764.484009,752.311829 763.025085,754.353638 758.009399,754.374084 
	C726.857605,754.501038 695.717407,755.605164 664.557800,755.400330 
	C627.230774,755.155029 589.899780,755.365967 552.575012,754.965088 
	C519.264893,754.607300 485.959839,753.733459 452.654572,752.996338 
	C429.678680,752.487915 406.703796,751.903503 383.733307,751.196106 
	C372.752625,750.857910 361.777771,750.241028 350.812561,749.554749 
	C348.163574,749.388916 346.344269,750.026367 344.920166,752.263306 
	C339.045715,761.490967 337.523529,776.894958 347.145386,786.471863 
	C355.192719,794.481567 356.583984,806.901733 351.116486,817.016541 
	C347.542206,823.629028 342.847778,829.522156 338.279755,835.449951 
	C334.386658,840.501892 328.535461,842.702393 322.498383,843.098572 
	C307.229828,844.100647 294.786194,850.770935 283.909851,860.978577 
	C271.055206,873.043091 256.669128,876.429260 239.754120,870.253601 
	C227.583878,865.810425 214.773560,863.163818 203.576813,856.143921 
	C197.387711,852.263611 192.227936,847.577332 188.338242,841.325317 
	C178.928024,826.199890 168.462433,811.744812 160.473297,795.722534 
	C153.710953,782.160583 150.045441,767.666138 146.766632,753.055847 
	C145.680328,748.215210 143.695541,747.137939 138.908951,747.621521 
	C129.145737,748.607971 119.303406,748.877991 109.486290,749.246765 
	C98.337814,749.665527 87.251205,750.742065 76.190010,752.088074 
	C67.880135,753.099365 62.806618,748.758789 62.671112,740.252747 
	C62.373501,721.570801 65.037544,703.072693 66.225082,684.483643 
	C66.789368,675.650452 66.768394,666.837708 66.721275,658.018372 
	C66.577049,631.026794 66.496696,604.038452 67.677704,577.063782 
	C67.719810,576.102051 67.909561,575.146667 68.031479,574.180664 
	C70.268471,574.200195 70.078926,575.769836 70.264915,576.989441 
	C74.203827,602.819946 74.246422,628.699768 71.522301,654.654053 
	C69.154343,677.215027 68.897995,699.839478 70.108032,722.491699 
	C70.392166,727.810852 70.376366,733.159668 70.202766,738.485229 
	C70.067886,742.623047 71.634758,744.256653 75.824051,743.784851 
	C93.237251,741.823792 110.734779,741.985168 128.220016,741.906677 
	C133.177582,741.884399 138.135330,741.903320 143.228424,741.903320 
	C144.632248,738.144897 142.905106,734.612610 142.496918,731.090698 
	C140.090881,710.331177 140.639160,689.568237 141.418930,668.743347 
	C142.514755,639.477966 146.461395,610.308228 144.636444,580.944763 
	C143.593491,564.163818 141.074966,547.560242 138.363297,530.978638 
	C135.436707,513.082886 133.734711,495.062317 132.542618,476.956818 
	C131.291351,457.952667 131.385620,438.988861 132.809250,420.049530 
	C135.413757,385.400269 140.455292,351.248230 155.632553,319.420441 
	C156.993958,316.565491 158.197845,313.632599 159.400467,310.705322 
	C162.666275,302.756073 162.530457,302.494415 155.437393,297.918030 
	C133.737823,283.917694 112.030945,269.928314 90.389313,255.838806 
	C80.346397,249.300476 70.019020,243.087967 62.377884,233.503296 
	C60.699772,231.398346 59.156673,229.260315 58.320137,226.678864 
	C56.384220,220.704910 57.706100,216.450745 63.595707,214.565063 
	C75.145012,210.867264 86.961342,207.943619 99.265312,208.337662 
	C113.308037,208.787384 126.957794,211.912460 140.623001,214.786346 
	C162.995178,219.491379 183.103897,213.914291 202.015320,202.000336 
	C212.638641,195.307785 221.983124,187.000046 231.766785,179.240631 
	C270.229401,148.735977 313.442291,126.755226 358.428772,107.702507 
	C384.770508,96.546227 412.208679,90.771011 440.292023,86.551727 
	C473.637756,81.541824 507.066040,78.146927 540.753601,79.843567 
	C592.376770,82.443497 639.470581,97.702255 679.261780,132.019882 
	C705.998901,155.079117 724.493652,183.795746 737.156433,216.494324 
	C748.089966,244.727768 754.526550,274.044098 758.462891,304.004089 
	C762.063049,331.405243 763.824097,358.933411 765.422363,386.503357 
	C767.817932,427.827240 764.852112,469.105988 765.051025,510.406006 
	C765.055847,511.404572 765.038452,512.403259 765.023560,513.886597 
M235.686630,853.203247 
	C234.410233,853.781616 232.703110,853.640503 232.038528,855.302490 
	C245.985886,865.264160 268.558777,863.346741 280.734711,850.514954 
	C290.979279,839.718384 303.123077,832.940491 317.849030,832.186462 
	C326.856598,831.725281 332.030792,827.474243 336.617371,820.419922 
	C346.934326,804.552124 347.142426,804.626343 335.990845,789.423767 
	C326.868500,776.987610 327.167480,759.505371 336.770935,747.663452 
	C342.466705,740.640137 347.087189,732.932068 351.402649,725.026733 
	C359.943878,709.380432 366.941406,692.953369 375.866119,677.482300 
	C385.822906,660.222229 395.181366,642.616943 404.797028,625.167725 
	C388.828979,627.580505 376.379883,635.257202 367.765869,648.902588 
	C365.365570,652.704956 362.601227,656.293945 360.408020,660.207397 
	C353.928680,671.768860 345.267120,681.239014 334.248657,688.597473 
	C330.508942,691.095032 326.864319,693.738159 323.223267,696.379639 
	C313.130859,703.701660 302.388397,710.238708 294.890411,720.643372 
	C293.397827,722.714539 291.782410,726.233154 288.225433,724.013428 
	C284.754059,721.847046 286.948853,718.710083 287.707367,715.981384 
	C287.967041,715.047119 288.667511,714.239075 289.141785,713.360046 
	C291.918243,708.214111 294.189941,702.873962 295.763306,697.220032 
	C301.780243,675.598328 301.828644,653.447693 301.320496,631.311157 
	C301.083282,620.978271 300.987213,610.695068 301.574799,600.370728 
	C302.163666,590.023376 304.413879,588.320068 314.193970,591.308350 
	C341.351654,599.606384 369.001709,603.849243 397.451569,600.674194 
	C410.316010,599.238525 422.002289,595.121521 431.729950,586.034851 
	C438.864868,579.369995 445.106781,572.053833 449.952057,563.634094 
	C461.622681,543.353577 469.401398,521.571899 472.450012,498.417084 
	C475.840912,472.662537 467.268005,450.230164 451.246277,430.240753 
	C437.225647,412.747955 420.244080,398.122589 404.939880,381.878387 
	C389.492249,365.481964 370.964294,354.169220 349.445343,347.627625 
	C343.854248,345.927948 342.724823,346.697113 342.308594,352.503296 
	C339.516968,391.444489 320.509369,418.941406 284.034241,433.448578 
	C263.479614,441.623688 241.910797,444.121765 219.820343,442.553802 
	C212.521881,442.035797 205.155746,442.145050 197.833466,442.376221 
	C189.721786,442.632324 184.573395,448.061127 184.337234,456.144745 
	C184.103882,464.132538 186.849915,471.157623 191.576813,477.474701 
	C192.248627,478.372528 192.960571,479.421295 194.682465,478.995941 
	C195.394882,477.937805 196.256302,476.726929 197.048035,475.472076 
	C207.890121,458.288055 228.845749,451.850769 247.358887,460.027100 
	C253.702423,462.828735 256.255554,466.959839 255.567505,473.309204 
	C253.784775,489.760132 238.115921,504.090607 221.590134,504.350067 
	C217.813477,504.409393 214.035095,504.358856 210.712738,504.358856 
	C209.564835,505.814331 209.961685,506.817963 210.015793,507.793304 
	C210.439835,515.437988 210.807861,523.086304 211.308365,530.726013 
	C211.505447,533.734070 210.565567,535.327209 207.313675,535.681885 
	C203.963593,536.047302 204.061539,533.913574 203.580597,531.730164 
	C201.684570,523.122681 199.522705,514.572449 197.708893,505.948517 
	C196.596466,500.659393 194.040375,496.506409 189.991531,492.930878 
	C180.748230,484.768188 175.657349,474.373871 173.967606,462.164886 
	C171.777191,446.338379 180.619644,432.740570 194.746643,430.747009 
	C200.033966,430.000885 205.366562,430.015442 210.712097,430.258667 
	C226.192841,430.962952 241.633896,431.144592 257.057648,428.796814 
	C292.736084,423.365845 316.964844,404.101135 329.568207,370.147797 
	C334.831390,355.968842 333.360626,343.072815 323.756744,331.245331 
	C322.858856,330.139557 321.284607,329.012299 322.821533,327.438293 
	C324.170258,326.057037 325.602386,327.128571 326.921173,327.792236 
	C332.472412,330.585754 338.422241,332.228058 344.434418,333.556915 
	C374.936127,340.298401 402.501190,353.158234 426.063477,373.757660 
	C466.363098,408.989868 489.122925,451.981049 483.316986,507.089386 
	C480.476624,534.049072 470.952118,558.305786 454.229889,579.811951 
	C443.171692,594.033752 428.965851,602.628540 411.504120,606.399170 
	C381.198425,612.943420 351.274750,610.169739 321.545044,602.893982 
	C308.892548,599.797485 308.425049,599.812195 308.327484,613.313965 
	C308.137146,639.642700 308.267853,665.973877 308.291321,692.304016 
	C308.291718,692.725159 308.619019,693.146118 309.001862,694.068604 
	C315.559479,689.738770 321.832642,685.414978 328.288361,681.383423 
	C335.291412,677.010071 341.353058,671.797668 346.267944,665.049194 
	C353.131348,655.625305 360.215088,646.333435 367.683167,637.384399 
	C382.772247,619.303040 404.554138,617.276794 425.841583,613.160706 
	C426.277649,617.809875 423.911774,620.114258 420.972717,621.755615 
	C415.226990,624.964294 411.238220,629.726624 408.057739,635.320312 
	C404.106079,642.270447 399.853577,649.066772 396.233673,656.185181 
	C381.664520,684.834717 368.804138,714.369995 351.733154,741.719238 
	C351.310272,742.396729 350.738190,743.093445 351.385956,744.422485 
	C358.773010,745.142151 366.346039,744.172180 373.935883,743.994568 
	C405.580139,743.253601 437.227020,742.486755 468.877350,742.175598 
	C518.199097,741.690674 567.522034,741.357849 616.845520,742.536194 
	C647.160767,743.260498 677.490479,743.355713 707.810913,743.893433 
	C722.465210,744.153259 737.118286,744.666504 751.760132,745.325989 
	C755.331238,745.486816 756.595581,744.287476 756.679688,740.908691 
	C756.928467,730.916870 757.599792,720.927551 757.576355,710.938416 
	C757.486816,672.780823 758.102234,634.625061 757.126587,596.464050 
	C756.058044,554.661621 755.587036,512.843811 754.871277,471.032440 
	C754.423950,444.899994 754.931702,418.758636 752.862183,392.648712 
	C750.850769,367.271088 749.094421,341.887543 745.855774,316.617126 
	C741.179077,280.127014 733.126160,244.583496 718.578003,210.623672 
	C704.286011,177.261780 682.597351,150.026199 652.544678,129.642197 
	C613.859497,103.402863 570.303833,92.738968 524.302490,90.410271 
	C486.758026,88.509682 449.856842,93.892250 413.451904,102.219833 
	C368.252869,112.559052 327.484406,133.162109 288.758636,158.260345 
	C264.132965,174.220291 240.458481,191.515701 216.407928,208.286148 
	C198.288651,220.920715 178.077728,227.906372 156.049362,227.969498 
	C132.745178,228.036270 109.433434,226.958908 86.153542,225.545517 
	C82.178017,225.304153 78.082169,224.666367 73.697021,226.159119 
	C76.829109,230.393219 80.469254,233.250092 84.371048,235.817810 
	C111.374756,253.588425 138.442474,271.263123 165.325882,289.213867 
	C169.706757,292.139099 172.531601,291.707306 176.075958,288.095886 
	C186.498459,277.476227 199.315613,270.892517 213.637177,267.281616 
	C228.329681,263.577179 240.120331,270.117859 243.179901,283.407990 
	C246.135101,296.244781 242.870682,307.291077 232.849243,315.844208 
	C223.184631,324.092804 211.994797,325.915283 200.119034,321.407867 
	C192.811142,318.634186 185.655640,315.395844 178.635925,311.950104 
	C174.507126,309.923340 172.128372,310.457489 169.841980,314.620056 
	C165.657364,322.238556 161.891464,330.016541 159.077667,338.227997 
	C148.448242,369.247528 144.810776,401.496246 143.504913,433.964050 
	C141.995636,471.489502 145.454300,508.758575 151.919846,545.755676 
	C155.830658,568.134155 157.307159,590.712708 155.886963,613.390076 
	C154.306656,638.623718 151.148941,663.740723 151.048630,689.089844 
	C150.927063,719.809875 154.098083,749.900574 165.930481,778.585327 
	C169.665527,787.640015 173.888931,796.448120 179.687302,804.936096 
	C184.774765,801.535828 189.917358,798.355103 195.653168,799.026428 
	C216.249100,801.437195 233.952866,809.349854 244.819595,828.145813 
	C251.465500,839.640991 248.500717,847.601990 235.686630,853.203247 
M227.114426,311.671295 
	C233.752625,303.231476 233.619110,293.855682 230.549652,284.275208 
	C229.434265,280.793854 226.355667,279.318909 222.672943,279.222809 
	C214.612396,279.012451 207.216553,281.432251 200.262985,285.180115 
	C193.565216,288.790131 187.456802,293.250366 181.631622,299.626129 
	C193.887161,305.219452 204.889893,311.427032 217.220001,314.522766 
	C220.560043,315.361328 223.850876,314.565460 227.114426,311.671295 
M216.638000,816.844543 
	C210.791428,813.468079 204.420914,811.666016 197.810959,810.589661 
	C195.090744,810.146606 192.395172,810.106445 190.453278,812.453064 
	C188.458405,814.863708 189.366699,817.473083 190.327286,820.004578 
	C191.348114,822.694519 193.029099,824.976318 194.952927,827.061951 
	C201.017426,833.636719 208.296188,838.506897 216.322311,842.387085 
	C220.986389,844.641907 225.316223,844.761597 230.078125,842.370789 
	C236.426514,839.183411 237.392975,836.575195 232.980240,830.897156 
	C228.658386,825.336182 223.497147,820.638062 216.638000,816.844543 
M215.010223,493.665802 
	C225.126465,496.513885 233.699982,493.213013 239.013916,484.392853 
	C241.575424,480.141296 241.643799,475.832397 238.810333,471.726074 
	C236.042709,467.715088 231.957336,466.395203 227.380829,467.503845 
	C223.031403,468.557495 218.733902,469.967438 214.572037,471.619812 
	C208.510742,474.026306 206.600815,479.266418 206.224014,485.253510 
	C205.869751,490.882324 210.753204,491.513428 215.010223,493.665802 
z"/>
<path fill="#000000" opacity="1.000000" stroke="none" 
	d="
M443.313599,837.086304 
	C443.314484,842.406372 443.448273,847.243835 443.272369,852.070007 
	C443.145111,855.560913 444.593475,856.940308 448.001587,856.714111 
	C449.990509,856.582153 452.002258,856.668213 453.996704,856.780701 
	C455.979340,856.892517 457.722748,857.690735 457.937317,859.865723 
	C458.185516,862.381714 456.345337,863.525757 454.218597,863.695984 
	C450.408691,864.001038 446.572388,864.032227 442.746216,864.063049 
	C438.248688,864.099304 433.743011,864.152161 429.255188,863.920471 
	C427.078308,863.808105 424.757202,863.134521 424.831573,860.213257 
	C424.904999,857.326721 427.114929,856.512573 429.377747,856.793213 
	C435.269104,857.523926 436.160248,854.580200 436.088806,849.484558 
	C435.831787,831.157471 435.866730,812.823364 436.068726,794.494873 
	C436.118713,789.957214 435.038940,787.552856 430.046661,787.846619 
	C428.140411,787.958862 425.743103,787.704468 425.042023,785.370056 
	C424.149658,782.398621 425.892120,780.806885 428.668915,780.797058 
	C442.329071,780.748474 455.999420,780.569702 469.645264,781.041687 
	C474.823334,781.220764 479.513611,783.929626 483.443329,787.518311 
	C495.058685,798.125549 493.559601,813.187500 480.125000,821.506714 
	C478.033875,822.801575 475.457550,823.349060 473.389526,825.971619 
	C483.112183,833.663757 488.605133,844.558228 495.029785,854.777649 
	C496.201935,856.642212 498.026062,856.624390 499.873108,856.686951 
	C502.070312,856.761169 503.957336,857.464539 504.083405,859.982849 
	C504.223816,862.788086 502.115662,863.651917 499.843506,863.942810 
	C495.190125,864.538635 491.250793,864.330872 488.702728,859.012695 
	C485.401520,852.122498 480.964783,845.806335 476.390991,839.635010 
	C468.969238,829.620972 459.249451,825.390442 446.832520,827.261963 
	C444.317627,827.640991 443.298035,828.702393 443.329926,831.099854 
	C443.354309,832.932434 443.321320,834.765808 443.313599,837.086304 
M446.909058,788.042664 
	C444.412048,787.996948 443.306702,789.235901 443.318054,791.716553 
	C443.355225,799.864624 443.337433,808.013062 443.335266,816.161316 
	C443.334778,817.961426 443.657349,819.734009 445.868378,819.710144 
	C455.590851,819.605347 465.551178,821.372131 474.655884,816.134949 
	C479.632782,813.272278 483.745239,809.786865 483.716187,803.460083 
	C483.687469,797.201416 479.528503,793.584900 474.805084,790.528870 
	C471.795990,788.582092 468.348267,787.993652 464.783875,788.010742 
	C459.130066,788.037842 453.476013,788.022095 446.909058,788.042664 
z"/>
<path fill="#000000" opacity="1.000000" stroke="none" 
	d="
M691.914856,864.114380 
	C688.275330,864.052185 685.102600,864.127075 681.955322,863.878357 
	C679.820740,863.709839 677.985291,862.611145 678.005737,860.169983 
	C678.026550,857.680786 679.869812,856.646790 682.069580,856.745300 
	C685.991577,856.921143 686.757385,854.858276 686.724426,851.455078 
	C686.605042,839.130005 686.612976,826.802368 686.726379,814.477112 
	C686.756714,811.175720 686.267151,808.966797 682.204041,809.164246 
	C679.772583,809.282410 677.917053,807.871399 678.030457,805.237000 
	C678.135376,802.799072 680.182129,801.714783 682.258423,801.896545 
	C686.570679,802.274170 691.668640,799.512085 695.100098,805.035522 
	C704.696228,798.077698 713.977173,796.931396 721.807861,807.299072 
	C723.886169,807.173828 724.699951,805.753540 725.838806,804.849426 
	C731.375000,800.454468 737.414673,797.963562 744.343994,801.048523 
	C751.255798,804.125671 753.757996,810.250488 753.912720,817.311340 
	C754.149780,828.133545 754.066528,838.964233 754.006287,849.790649 
	C753.984741,853.666260 753.710144,857.326050 759.420105,856.962341 
	C761.195740,856.849243 762.374573,858.375366 762.357971,860.354553 
	C762.343201,862.116150 761.285461,863.117676 759.698730,863.534729 
	C756.094177,864.482361 752.389526,864.398315 748.799805,863.776245 
	C746.131042,863.313721 746.723633,860.705078 746.716553,858.805420 
	C746.667358,845.646423 746.677734,832.487183 746.690247,819.328064 
	C746.692505,816.985779 746.671692,814.675476 745.640747,812.484436 
	C743.397339,807.716492 738.601685,805.770020 734.017090,808.357544 
	C728.122742,811.684265 723.858826,816.186584 724.080811,823.769592 
	C724.348633,832.923462 724.205017,842.090820 724.148987,851.251831 
	C724.129761,854.391724 724.420227,856.941467 728.577026,856.767212 
	C730.833740,856.672607 732.540955,857.922485 732.582581,860.315247 
	C732.626648,862.846008 730.553040,863.477051 728.519958,863.921021 
	C728.196228,863.991638 727.859619,864.002686 727.528931,864.041321 
	C717.391296,865.225952 716.694580,864.614502 716.694641,854.561646 
	C716.694702,842.568481 716.640442,830.575073 716.713440,818.582336 
	C716.742004,813.888062 715.490845,809.754333 710.976013,807.856445 
	C706.560242,806.000183 702.861023,808.420410 699.735474,811.375244 
	C695.999451,814.907288 693.705505,818.919983 693.986450,824.542969 
	C694.443054,833.681580 694.120056,842.859497 694.108154,852.020874 
	C694.104919,854.520264 694.252136,856.763672 697.697998,856.695190 
	C700.239929,856.644714 702.661682,857.468872 702.556335,860.460083 
	C702.450378,863.467529 699.751038,863.825684 697.386230,864.046082 
	C695.733887,864.200012 694.057861,864.100220 691.914856,864.114380 
z"/>
<path fill="#000000" opacity="1.000000" stroke="none" 
	d="
M611.395020,804.229614 
	C621.398743,801.638794 630.859436,798.146484 641.125916,800.610596 
	C651.815735,803.176392 657.299500,809.792908 657.314880,820.717041 
	C657.329224,830.873108 657.465454,841.031616 657.275330,851.183960 
	C657.200073,855.199219 658.412720,857.190857 662.661011,856.701294 
	C663.801575,856.569824 665.002502,856.678467 666.140747,856.877258 
	C667.751831,857.158752 668.875732,858.123657 669.073853,859.829041 
	C669.274902,861.558960 668.368530,862.840820 666.822937,863.302429 
	C661.944885,864.759216 656.920959,864.407959 652.000671,863.741699 
	C649.152344,863.355957 650.406860,860.088135 649.297852,858.310547 
	C647.203918,857.818665 645.953918,859.463196 644.434692,860.307861 
	C635.575684,865.233276 626.319092,867.681213 616.148010,865.385132 
	C608.542664,863.668335 602.914124,859.572083 601.106628,851.816284 
	C599.208740,843.672241 601.591370,836.578735 608.482788,831.503845 
	C616.879456,825.320251 626.609009,824.522156 636.580200,825.178955 
	C639.723022,825.385925 642.858215,825.864929 645.965942,826.399475 
	C648.467041,826.829712 649.596008,826.084106 649.937561,823.438721 
	C651.174072,813.864441 646.072998,807.871033 636.304443,807.250671 
	C628.462524,806.752808 621.163391,808.882263 613.814331,811.074768 
	C611.786316,811.679810 609.270203,812.351562 608.113098,809.728577 
	C606.909851,807.000732 608.519775,805.340088 611.395020,804.229614 
M620.545288,833.902588 
	C619.157715,834.451904 617.719421,834.900391 616.391174,835.567810 
	C610.592590,838.481567 606.764771,844.047058 607.572632,848.268066 
	C608.727295,854.301086 614.356873,858.325745 621.577759,858.807373 
	C631.963074,859.500000 640.267578,855.149536 647.688477,848.542175 
	C651.567810,845.088196 650.067505,840.434875 649.561707,836.341797 
	C649.140625,832.934753 645.552612,833.612061 643.052612,833.136963 
	C635.770264,831.753113 628.526062,831.986938 620.545288,833.902588 
z"/>
<path fill="#000000" opacity="1.000000" stroke="none" 
	d="
M548.774292,807.265137 
	C541.528992,806.848572 535.179443,808.913330 528.779175,810.748718 
	C526.283875,811.464294 523.215942,812.931641 521.991943,809.282471 
	C520.813171,805.767883 523.833679,804.600647 526.418579,803.898804 
	C536.035583,801.287659 545.600769,798.072388 555.816711,800.710022 
	C563.545898,802.705688 572.001953,808.939209 571.433411,820.430481 
	C570.931946,830.565430 571.500549,840.749084 571.266479,850.903625 
	C571.168701,855.146118 572.365967,857.247498 576.879456,856.698364 
	C578.007690,856.561096 579.222778,856.731262 580.339294,857.001831 
	C581.908508,857.381958 583.030518,858.382629 583.089111,860.121460 
	C583.147644,861.857788 582.114502,863.023315 580.564636,863.427551 
	C575.819397,864.665039 570.954956,864.345154 566.187622,863.787170 
	C563.034241,863.418030 564.742859,859.748535 562.877319,857.602295 
	C556.631348,861.480591 550.051147,864.837646 542.512756,865.862122 
	C537.272278,866.574280 532.191345,866.181641 527.242432,864.570374 
	C520.742188,862.454102 516.315552,857.983887 514.935547,851.288452 
	C513.420776,843.939453 515.376404,837.357849 521.326172,832.415833 
	C529.888550,825.303772 540.128845,824.599915 550.605469,825.159790 
	C553.748291,825.327759 556.886414,825.837402 559.991028,826.390808 
	C562.888123,826.907166 563.828308,825.713379 564.024841,822.951477 
	C564.738037,812.930725 560.184570,808.031372 548.774292,807.265137 
M549.322449,832.303833 
	C542.434875,832.035339 535.697998,832.641174 529.508667,836.019470 
	C523.899475,839.081177 520.856750,844.212219 521.826172,848.765991 
	C523.067078,854.595032 527.640564,858.103333 534.546753,858.743164 
	C544.247253,859.641724 552.462769,856.274475 559.816345,850.247314 
	C563.823853,846.962585 565.476318,841.556458 563.740417,836.412659 
	C562.387634,832.403809 558.552673,833.657654 555.668274,833.012939 
	C553.897217,832.617188 552.055298,832.538391 549.322449,832.303833 
z"/>
<path fill="#000000" opacity="1.000000" stroke="none" 
	d="
M546.884766,897.518311 
	C547.397949,898.207336 547.846802,898.957886 547.736084,899.052307 
	C542.429688,903.578491 544.726868,909.708130 544.313782,915.239014 
	C544.153076,917.390869 544.246643,919.565674 544.296204,921.728455 
	C544.390198,925.834595 542.857300,930.572937 548.927063,932.127502 
	C544.862427,936.042542 536.158142,936.055298 532.567017,932.658081 
	C532.639160,931.700195 533.289551,930.893982 534.076355,930.963196 
	C539.829041,931.468872 539.875977,927.845459 539.756714,923.681213 
	C539.576233,917.380615 539.709534,911.071045 538.704041,904.380554 
	C536.179871,909.253296 533.701050,914.150391 531.110596,918.987610 
	C529.971069,921.115540 529.263367,923.898193 526.057739,923.812805 
	C523.101074,923.733948 522.567322,921.092773 521.505798,919.103699 
	C518.850708,914.128540 516.253479,909.122498 512.461731,904.281067 
	C512.461731,912.280518 512.426819,920.280273 512.486572,928.279297 
	C512.501221,930.247498 514.014832,930.577087 515.640686,930.676575 
	C517.238525,930.774353 519.086609,930.379578 519.882080,932.440430 
	C516.596191,935.968567 507.973083,936.067200 503.827759,932.404175 
	C510.986938,928.353271 507.572327,921.552734 507.669525,915.937744 
	C507.766357,910.341736 510.406189,903.876038 504.557098,899.323181 
	C507.862488,895.424622 514.159485,895.704956 516.485962,899.859070 
	C519.639648,905.490356 522.600586,911.229553 526.236023,918.029358 
	C529.168945,912.506531 531.648315,907.917847 534.053101,903.290466 
	C537.762207,896.153076 538.150757,895.944275 546.884766,897.518311 
z"/>
<path fill="#000000" opacity="1.000000" stroke="none" 
	d="
M123.236084,725.124329 
	C112.993446,725.178894 103.164200,725.053894 93.344116,725.297668 
	C89.204498,725.400452 87.727272,723.869019 87.742874,719.806396 
	C87.848450,692.327576 87.812851,664.848206 87.864410,637.369080 
	C87.867355,635.799377 87.456871,633.993042 89.754166,632.450378 
	C91.840324,639.198547 91.650795,645.959045 92.237297,652.563904 
	C94.066612,673.164551 93.352715,693.825195 93.204765,714.460999 
	C93.170456,719.247070 95.093559,720.679749 99.314590,720.647400 
	C107.150200,720.587402 114.924156,721.492004 122.689796,722.380554 
	C124.188629,722.552002 127.141289,722.853638 123.236084,725.124329 
z"/>
<path fill="#000000" opacity="1.000000" stroke="none" 
	d="
M722.303101,922.029175 
	C722.304749,926.522217 722.130920,930.531921 722.354309,934.519470 
	C722.621216,939.286011 720.454834,942.578491 716.524048,944.734802 
	C711.299805,947.600586 705.626953,947.331848 699.962646,946.460632 
	C698.919800,946.300171 698.160278,945.619995 698.157837,943.958252 
	C701.179504,941.489075 704.962708,942.982361 708.404358,942.749207 
	C715.569885,942.263672 718.649536,938.296936 716.992310,930.857056 
	C711.796448,933.211853 706.604980,935.175842 700.722290,933.420410 
	C693.082397,931.140503 689.002136,925.638916 689.664124,917.854309 
	C690.204895,911.495850 696.225403,906.152832 703.460815,905.727173 
	C707.132812,905.511169 710.809143,905.495972 714.158630,907.434875 
	C715.738953,908.349731 717.090637,909.227600 718.806152,907.176819 
	C719.500732,906.346558 721.628052,906.575134 723.103516,906.574280 
	C724.820923,906.573242 727.302429,905.743835 727.783997,908.116089 
	C728.284973,910.583984 725.758423,910.126404 724.271606,910.476135 
	C722.590820,910.871399 722.366760,912.143433 722.349670,913.537048 
	C722.317078,916.203186 722.317017,918.869751 722.303101,922.029175 
M698.460266,911.879333 
	C692.574280,917.102844 692.655334,923.581299 698.657837,927.672058 
	C703.464050,930.947571 710.064087,930.539673 714.396423,926.699402 
	C718.861694,922.741272 718.980652,917.279236 714.691223,913.168030 
	C710.393982,909.049683 705.684692,908.543579 698.460266,911.879333 
z"/>
<path fill="#000000" opacity="1.000000" stroke="none" 
	d="
M449.317871,913.575195 
	C449.284637,920.665710 449.098633,927.325195 449.305023,933.972473 
	C449.471039,939.319458 447.179718,942.988525 442.475311,945.061829 
	C437.640533,947.192688 432.438416,947.023621 427.289642,946.664001 
	C426.150879,946.584473 424.854309,946.186035 424.895966,944.643738 
	C424.937164,943.117126 426.167877,942.812561 427.369995,942.776917 
	C430.029633,942.698181 432.696564,942.808777 435.352692,942.680176 
	C442.512573,942.333496 445.501892,938.306030 443.969727,930.786560 
	C439.846893,932.520630 435.792603,934.551880 431.178314,934.078125 
	C422.020111,933.138123 415.432434,926.220642 416.311401,918.507690 
	C417.305511,909.784119 425.385071,904.084412 435.577057,905.948425 
	C440.363678,906.823853 444.790253,908.274353 449.694427,906.631104 
	C451.328583,906.083618 453.712860,905.857971 454.945282,908.167542 
	C454.717682,911.741760 448.961823,908.998962 449.317871,913.575195 
M443.158020,924.502991 
	C445.524994,920.571472 445.124298,916.886108 442.047302,913.540466 
	C438.570618,909.760315 432.669647,908.505920 427.864990,910.430847 
	C423.636383,912.125061 420.752899,915.222473 420.731903,919.751404 
	C420.709473,924.592163 423.975433,927.851196 428.369568,929.183716 
	C433.799438,930.830383 438.930237,929.935913 443.158020,924.502991 
z"/>
<path fill="#000000" opacity="1.000000" stroke="none" 
	d="
M651.891235,922.208252 
	C648.195312,923.131287 649.810242,924.910583 650.933899,926.256348 
	C655.539368,931.772034 661.657043,932.567993 668.189514,931.171692 
	C671.081726,930.553467 673.812439,929.187195 676.624573,928.183167 
	C677.838135,927.749817 678.962036,927.834961 679.605164,929.129395 
	C680.150085,930.226196 679.460510,931.009644 678.753662,931.744690 
	C670.618347,940.204468 648.560669,935.478271 644.714355,924.451477 
	C641.797302,916.088623 647.291626,907.803101 657.017517,905.898254 
	C666.262085,904.087769 675.034363,907.392029 678.431946,913.964417 
	C681.630859,920.152588 680.556641,922.085510 673.758911,922.146729 
	C666.601257,922.211060 659.442688,922.170532 651.891235,922.208252 
M657.727173,910.197571 
	C654.222778,911.461243 650.533142,912.525818 649.863037,917.234253 
	C658.186829,917.234253 666.161438,917.234253 674.328491,917.234253 
	C671.803345,911.170837 665.830872,908.594238 657.727173,910.197571 
z"/>
<path fill="#000000" opacity="1.000000" stroke="none" 
	d="
M752.421082,931.654968 
	C757.796814,932.005859 762.401123,930.785583 766.812622,928.612366 
	C768.192078,927.932739 769.826477,927.313232 770.618958,929.268311 
	C771.246826,930.817261 769.952332,931.760315 768.744995,932.339294 
	C760.542664,936.273132 752.083435,937.172424 743.730408,933.205322 
	C738.099243,930.530823 734.489136,925.829285 734.945007,919.294189 
	C735.418701,912.503479 739.885986,908.666992 746.052917,906.609680 
	C756.395508,903.159485 767.548828,907.596680 770.362366,916.248962 
	C771.869812,920.884766 771.176758,922.003601 766.346497,922.076782 
	C759.687256,922.177673 753.025085,922.067200 746.364746,922.117493 
	C744.581848,922.131042 742.698914,921.707336 740.574341,923.169617 
	C742.330200,928.768616 746.789917,930.671570 752.421082,931.654968 
M764.224976,917.526917 
	C766.684631,915.889954 764.705872,914.715210 763.697144,913.661438 
	C758.649292,908.388245 748.324280,908.128113 742.881409,913.126099 
	C741.725647,914.187439 740.262878,915.288879 741.377563,917.652588 
	C748.656982,917.652588 756.065613,917.652588 764.224976,917.526917 
z"/>
<path fill="#000000" opacity="1.000000" stroke="none" 
	d="
M66.061813,900.712341 
	C62.822247,902.117737 60.009514,903.744507 60.484982,907.323853 
	C60.986698,911.100891 64.431084,911.950195 67.524040,912.652649 
	C71.409363,913.535095 75.405212,913.954590 79.261391,914.935486 
	C83.616089,916.043091 86.820389,918.695618 87.190109,923.463928 
	C87.570381,928.368408 84.865364,931.757568 80.625519,933.695679 
	C75.105446,936.218933 69.299011,935.872925 63.525169,934.509033 
	C61.406116,934.008484 59.591206,932.157654 57.048698,933.927917 
	C55.735771,934.842041 54.499687,933.436401 54.322514,931.969177 
	C54.084755,930.000427 54.071774,927.991882 54.127216,926.005066 
	C54.159512,924.847595 54.453663,923.583618 55.769527,923.178284 
	C57.505146,922.643555 57.958935,924.075439 58.685722,925.203979 
	C63.025269,931.942749 72.581825,933.959351 79.198845,929.568481 
	C81.232193,928.219116 82.772728,926.513306 82.628975,923.875000 
	C82.480537,921.150940 80.490700,919.858276 78.349548,918.822449 
	C75.137962,917.268982 71.512871,917.537781 68.143417,916.655640 
	C66.055428,916.108948 63.917294,915.689331 61.902878,914.940491 
	C58.551720,913.694519 56.251984,911.340088 55.864124,907.660400 
	C55.477825,903.995544 57.257252,901.181763 60.151062,899.175415 
	C65.334610,895.581482 71.068527,895.648682 76.917397,897.081177 
	C77.881783,897.317322 78.816788,897.707031 79.732079,898.102783 
	C81.398079,898.822998 83.408951,896.063110 84.718735,898.352112 
	C86.002724,900.596069 85.256012,903.231689 85.228668,905.698914 
	C85.217361,906.718811 84.875160,907.715454 83.629631,907.882202 
	C82.700249,908.006592 81.964912,907.521179 81.621208,906.715332 
	C78.591011,899.610596 72.628464,899.810486 66.061813,900.712341 
z"/>
<path fill="#000000" opacity="1.000000" stroke="none" 
	d="
M267.286530,921.018677 
	C267.412567,925.721252 265.751282,930.713684 272.303925,931.923279 
	C268.898865,935.867126 261.667969,936.040466 257.350861,932.397461 
	C266.451935,929.031799 261.686493,921.461609 262.535095,915.565674 
	C262.867065,913.259521 261.072357,911.604675 259.055695,910.506531 
	C252.308517,906.832520 243.385773,912.048218 243.318665,919.704407 
	C243.299698,921.868896 243.345612,924.034180 243.309067,926.198181 
	C243.270859,928.460876 243.222900,930.633972 246.378113,930.827209 
	C247.451035,930.892944 248.314697,931.597412 248.102509,932.802612 
	C248.009094,933.333313 247.417023,934.093811 246.938950,934.189636 
	C242.459778,935.088074 237.962509,935.806213 232.233536,932.658630 
	C241.588379,929.998474 238.265198,923.438721 238.677872,918.217468 
	C238.965622,914.576843 238.733490,910.895386 238.737411,907.232178 
	C238.744843,900.309387 238.745987,900.309387 232.997299,896.587402 
	C234.925110,893.283997 238.045059,894.097107 240.807709,894.426636 
	C243.974274,894.804382 243.210007,897.515930 243.280731,899.554199 
	C243.376572,902.315735 243.304565,905.083130 243.304565,907.974548 
	C262.499847,903.821472 267.266083,906.427490 267.286530,921.018677 
z"/>
<path fill="#000000" opacity="1.000000" stroke="none" 
	d="
M565.579773,906.006958 
	C568.499451,905.841492 570.991516,905.644958 573.475525,905.719421 
	C580.744690,905.937195 584.275818,909.660522 584.313660,916.992493 
	C584.317993,917.823059 584.305542,918.653809 584.305420,919.484436 
	C584.303589,928.240295 584.303894,928.240295 590.334961,932.725952 
	C587.437317,935.669434 583.917603,935.802795 580.925537,934.124451 
	C578.810608,932.938232 577.429565,933.075623 575.520630,933.872498 
	C571.125122,935.707275 566.522888,936.144531 561.848877,935.306335 
	C557.830994,934.585754 554.522217,932.732910 553.770874,928.341309 
	C552.940308,923.486267 555.604309,920.478455 559.748657,918.561218 
	C563.458130,916.845154 567.417053,916.570984 571.442688,916.695984 
	C573.907227,916.772583 576.376099,916.710083 578.848145,916.710083 
	C579.791138,912.380005 577.678467,909.936829 572.411682,909.449402 
	C569.207397,909.152832 566.194458,910.327759 563.098083,910.866516 
	C561.245850,911.188843 558.587158,912.429199 558.016479,909.816833 
	C557.423767,907.103638 560.556396,907.446960 562.241089,906.766663 
	C563.151550,906.398926 564.175659,906.312805 565.579773,906.006958 
M569.649658,920.979004 
	C567.351685,921.210083 564.981628,921.008545 562.807312,922.004028 
	C560.479187,923.069702 558.083435,924.356384 558.450928,927.352661 
	C558.810547,930.284729 561.290466,931.284485 563.882507,931.588623 
	C569.075989,932.198120 573.688293,930.606812 577.880371,927.578857 
	C579.420288,926.466736 579.893738,925.008240 579.550659,923.232788 
	C579.164368,921.233398 577.501709,921.349121 576.036133,921.241821 
	C574.217712,921.108643 572.393494,921.053772 569.649658,920.979004 
z"/>
<path fill="#000000" opacity="1.000000" stroke="none" 
	d="
M602.859131,913.646362 
	C603.036926,910.456726 599.463745,910.696472 598.884583,908.357666 
	C600.507263,905.641907 603.628784,905.428284 605.368347,906.550354 
	C608.484802,908.560669 610.684326,907.254761 613.472290,906.318909 
	C624.001709,902.784607 631.320618,908.111877 631.329529,919.073669 
	C631.330566,920.405396 631.366821,921.738464 631.322021,923.068665 
	C631.194214,926.863953 630.546692,930.882874 635.860718,931.926575 
	C632.614685,936.104492 626.081909,936.188477 622.823242,932.443481 
	C626.462463,929.301575 628.602417,917.273254 626.020996,913.148926 
	C623.933838,909.814270 620.545105,908.904419 616.841675,909.601807 
	C610.737793,910.751221 607.184082,915.434692 607.471558,921.639587 
	C607.479309,921.805847 607.489319,921.972046 607.498230,922.138245 
	C607.845947,928.625122 607.845947,928.625122 612.785950,932.420532 
	C609.361084,936.156433 601.800171,936.180786 597.871277,932.126648 
	C605.227173,930.181702 602.584290,924.291504 602.960876,919.563110 
	C603.105591,917.746277 602.927612,915.903809 602.859131,913.646362 
z"/>
<path fill="#000000" opacity="1.000000" stroke="none" 
	d="
M393.646545,905.739380 
	C401.584442,907.743164 403.704498,910.362488 403.918854,917.964722 
	C403.961029,919.460754 403.930084,920.958679 403.939270,922.455750 
	C403.963165,926.342407 403.089050,930.582397 408.290619,932.240173 
	C404.476898,935.746277 399.428558,935.876587 394.759064,932.596436 
	C401.924194,929.594604 399.338470,923.436584 399.497894,918.260132 
	C399.670898,912.642456 396.707306,909.617676 391.597198,909.387695 
	C386.152252,909.142639 380.410797,913.541687 380.163818,918.273926 
	C380.025269,920.928101 380.596710,923.695862 380.038818,926.234497 
	C379.069244,930.646362 383.732819,930.153992 385.052521,932.446167 
	C382.456116,934.852173 373.829865,935.915100 371.648682,934.083191 
	C369.972839,932.675781 370.505554,931.152161 372.395416,930.930664 
	C375.786072,930.533264 375.730103,928.360718 375.682007,925.926208 
	C375.636017,923.598328 375.696869,921.268616 375.670532,918.940125 
	C375.625366,914.948425 376.843567,910.448914 371.152802,907.970398 
	C378.791199,907.579651 385.991760,906.559875 393.646545,905.739380 
z"/>
<path fill="#000000" opacity="1.000000" stroke="none" 
	d="
M224.774384,930.022400 
	C217.825897,935.927185 209.900146,936.375916 201.907898,934.793274 
	C194.346909,933.296021 190.213867,927.386169 190.511612,920.018616 
	C190.799988,912.882629 195.957169,907.546631 203.644928,905.880859 
	C210.018845,904.499817 215.981491,907.625061 222.301376,907.152344 
	C224.466782,906.990417 224.159592,909.886902 224.197327,911.653748 
	C224.235779,913.454163 224.588394,915.631348 222.594101,916.540344 
	C220.358475,917.559326 220.035385,915.230286 219.099213,913.992065 
	C214.196869,907.508606 201.313385,907.885498 196.727386,914.620361 
	C191.747696,921.933350 196.629105,930.743286 206.158737,931.650452 
	C211.504059,932.159241 216.300613,930.647644 220.871597,927.951477 
	C222.750076,926.843384 225.477264,924.929932 224.774384,930.022400 
z"/>
<path fill="#000000" opacity="1.000000" stroke="none" 
	d="
M301.935181,931.672241 
	C305.886353,931.502441 309.205658,930.432007 312.513306,929.310303 
	C313.682129,928.913940 314.934326,928.721252 315.592773,929.994568 
	C316.435577,931.624268 315.172974,932.570068 313.956482,933.055603 
	C307.294922,935.714294 300.430023,936.506897 293.513000,934.298706 
	C289.747101,933.096497 288.168396,929.981873 288.058228,926.162537 
	C287.947906,922.339233 287.907471,918.511108 287.957184,914.686768 
	C287.992645,911.958740 287.297729,910.129944 284.065643,910.304199 
	C282.785156,910.373230 281.101349,910.439575 280.938019,908.640930 
	C280.765991,906.746277 282.431122,906.584473 283.727692,906.690186 
	C287.611877,907.006897 288.063812,904.700378 287.969269,901.665283 
	C287.912659,899.847778 287.975037,897.479736 290.397095,897.487427 
	C293.172913,897.496155 292.516907,900.075623 292.364197,901.723022 
	C292.022156,905.413269 293.430939,906.926758 297.171112,906.667480 
	C300.316528,906.449524 303.490448,906.561584 306.648712,906.643494 
	C308.204681,906.683777 310.079926,906.168213 310.968872,908.484436 
	C309.521576,911.413452 306.710724,910.257263 304.501587,910.282593 
	C292.380707,910.421387 292.380005,910.361084 292.393860,922.495728 
	C292.402161,929.748718 294.090637,931.449097 301.935181,931.672241 
z"/>
<path fill="#000000" opacity="1.000000" stroke="none" 
	d="
M118.133888,935.379272 
	C108.646843,934.940552 105.929924,932.097229 105.888062,923.038452 
	C105.880363,921.372620 105.776955,919.698059 105.907639,918.042542 
	C106.261093,913.565125 106.006485,909.629028 99.931915,909.813660 
	C99.647430,909.822327 99.340813,909.102966 99.132912,908.836060 
	C99.043015,907.666626 99.630615,906.912842 100.487495,906.942871 
	C104.782333,907.093201 106.501228,905.162781 105.979652,900.890930 
	C105.797554,899.399536 106.256874,897.663208 108.227333,897.616516 
	C110.385315,897.565308 110.490562,899.433960 110.296425,900.867004 
	C109.579834,906.156616 112.456802,906.831482 116.814873,906.776428 
	C120.770592,906.726440 124.985992,905.571228 128.818436,907.831787 
	C128.350464,910.873718 126.187874,910.251770 124.530632,910.299866 
	C121.035187,910.401428 117.534531,910.380798 114.037018,910.334595 
	C111.534019,910.301514 110.361343,911.452576 110.384041,913.950745 
	C110.414299,917.282043 110.339264,920.614502 110.385452,923.945374 
	C110.466194,929.769104 112.314705,931.512756 118.272255,931.706238 
	C122.353294,931.838806 126.180153,930.789124 129.968246,929.474976 
	C131.259750,929.026855 132.742218,928.453064 133.469742,930.038208 
	C134.360931,931.979797 132.652130,932.673828 131.293015,933.238770 
	C127.235451,934.925293 122.986519,935.606384 118.133888,935.379272 
z"/>
<path fill="#000000" opacity="1.000000" stroke="none" 
	d="
M356.369507,934.799133 
	C346.679047,934.580933 337.321136,935.884521 327.375122,933.967224 
	C329.565979,929.615234 332.536987,930.829224 334.875000,930.768921 
	C341.710846,930.592651 341.713806,930.690369 341.727020,923.891907 
	C341.729614,922.562683 341.782776,921.230591 341.715851,919.904785 
	C341.574371,917.101562 342.646484,913.939331 341.130676,911.582458 
	C339.479858,909.015625 336.189392,910.756470 333.668304,910.271606 
	C332.457275,910.038757 331.407135,909.759338 331.191803,907.600037 
	C335.679871,905.877258 340.368835,906.391418 344.938873,907.248413 
	C346.557343,907.551880 346.206055,909.751038 346.220764,911.202087 
	C346.271393,916.186279 346.403015,921.177551 346.201904,926.153870 
	C346.060089,929.663452 347.463074,931.013062 350.875000,930.729492 
	C352.689819,930.578674 354.528748,930.682068 356.355591,930.723633 
	C357.677277,930.753601 359.342102,930.639587 359.697327,932.226257 
	C360.191925,934.435669 358.115234,934.273132 356.369507,934.799133 
z"/>
<path fill="#000000" opacity="1.000000" stroke="none" 
	d="
M164.160706,913.127808 
	C164.167419,917.771240 164.311905,921.937927 164.139450,926.091431 
	C163.997192,929.517578 165.313614,930.774109 168.782547,930.812500 
	C171.812424,930.846069 175.343597,929.412964 177.964890,932.515137 
	C173.959717,935.870667 150.113693,935.912292 145.963165,932.563049 
	C148.134201,929.409180 151.436478,930.713684 154.077805,930.830139 
	C158.449875,931.022766 160.297989,929.545715 159.702835,925.125427 
	C159.504730,923.654175 159.709778,922.132568 159.663788,920.636047 
	C159.572220,917.655762 160.247086,914.308655 159.106720,911.792175 
	C157.729660,908.753357 153.966782,910.933350 151.341400,910.247498 
	C150.298889,909.975159 149.460190,909.629883 149.220337,908.475586 
	C151.299164,906.849915 160.912033,905.837769 162.763840,907.134033 
	C164.767380,908.536499 163.934143,910.744263 164.160706,913.127808 
z"/>
<path fill="#000000" opacity="1.000000" stroke="none" 
	d="
M340.257629,895.461670 
	C341.392761,892.669861 343.320282,892.301025 345.139648,893.678589 
	C346.924103,895.029907 346.387543,897.325623 345.969513,899.220764 
	C345.574097,901.013123 343.964783,901.352417 342.419861,901.024719 
	C339.385468,900.381042 340.082336,897.954834 340.257629,895.461670 
z"/>
<path fill="#000000" opacity="1.000000" stroke="none" 
	d="
M157.960678,897.086426 
	C158.065704,894.373352 158.914917,892.721558 161.555939,893.135376 
	C163.958939,893.511841 163.984238,895.522705 163.999557,897.355957 
	C164.014160,899.101807 163.626389,900.730713 161.509521,901.025146 
	C158.848145,901.395325 157.994766,899.832947 157.960678,897.086426 
z"/>
<path fill="#000000" opacity="1.000000" stroke="none" 
	d="
M659.906738,201.074707 
	C628.338989,159.577271 587.325806,134.162811 536.154541,125.551308 
	C520.392090,122.898682 504.458557,121.739418 488.477142,121.307526 
	C486.428528,121.252167 484.231079,121.773788 481.900787,120.177269 
	C485.082001,117.047394 488.942017,117.661179 492.300781,117.273941 
	C529.657532,112.966980 566.128662,115.661942 600.644775,132.047729 
	C631.501099,146.696136 654.914856,169.645233 673.130676,198.171082 
	C694.407776,231.490891 706.662476,268.278625 714.243591,306.781830 
	C719.582825,333.898682 721.657715,361.435211 724.455750,388.882294 
	C726.279419,406.771149 727.325317,424.697357 727.807556,442.647827 
	C728.079895,452.783813 727.395508,462.946899 727.076172,473.095703 
	C727.036438,474.359619 727.041992,475.791992 725.088867,477.040161 
	C724.281799,470.419006 723.703735,464.107117 722.718262,457.859528 
	C717.989929,427.883972 717.518982,397.582977 715.561279,367.391083 
	C712.352478,317.904419 699.500061,271.064026 676.321228,227.141479 
	C671.571594,218.141373 666.186401,209.534882 659.906738,201.074707 
z"/>
<path fill="#000000" opacity="1.000000" stroke="none" 
	d="
M547.251465,410.732605 
	C512.820190,369.950378 469.475891,342.898163 420.316071,324.419373 
	C414.711365,322.312592 409.053497,320.347565 403.428802,318.293396 
	C402.974731,318.127533 402.587402,317.779053 402.069031,317.452423 
	C403.758606,314.971649 405.883698,315.721497 407.665039,315.958282 
	C477.516235,325.243439 530.281006,361.077759 568.392395,419.588654 
	C587.603516,449.082764 599.306885,481.425842 604.061707,516.210938 
	C607.443420,540.949890 606.731506,565.658142 601.410095,590.140137 
	C601.086121,591.630676 601.438171,593.583496 598.178101,594.301880 
	C608.092041,525.607056 591.116150,464.538940 547.251465,410.732605 
z"/>
<path fill="#000000" opacity="1.000000" stroke="none" 
	d="
M499.312408,691.816528 
	C498.269592,711.122437 484.390350,725.739136 465.759827,726.831177 
	C455.641724,727.424255 445.460205,726.937683 435.307312,726.929688 
	C434.810120,726.929321 434.307190,726.882812 433.816864,726.799255 
	C431.743774,726.446106 429.786560,725.849121 429.775635,723.248657 
	C429.764862,720.691650 431.491913,719.686707 433.721558,719.765991 
	C437.100067,719.886047 437.945190,718.184692 437.937164,715.147888 
	C437.884918,695.340332 437.915466,675.532471 437.972717,655.724854 
	C437.981171,652.806335 437.146362,650.987061 433.843658,650.778381 
	C431.539856,650.632812 429.480713,649.625854 429.814697,646.764709 
	C430.152039,643.874207 432.474945,643.717041 434.713043,643.714355 
	C446.198334,643.700806 457.744659,642.969604 469.153748,643.903992 
	C483.954346,645.116089 492.274261,654.993652 497.418884,668.116272 
	C500.390503,675.696167 498.934265,683.581482 499.312408,691.816528 
M445.300568,681.500000 
	C445.301117,691.658569 445.291687,701.817200 445.305542,711.975769 
	C445.316040,719.686157 445.329224,719.687927 452.786835,719.695435 
	C456.284058,719.698975 459.804291,719.433167 463.274353,719.739502 
	C476.308105,720.890015 489.089081,709.354553 491.628326,695.705566 
	C492.977417,688.453918 493.121948,680.850220 491.388123,673.878662 
	C488.227234,661.169128 479.454651,650.346008 464.571808,650.871094 
	C460.247223,651.023682 455.897369,651.130676 451.587250,650.840576 
	C446.916077,650.526123 444.981476,652.063721 445.205811,657.022949 
	C445.559143,664.834045 445.300659,672.672913 445.300568,681.500000 
z"/>
<path fill="#000000" opacity="1.000000" stroke="none" 
	d="
M564.576904,667.242310 
	C573.979492,672.885376 578.673218,681.152039 580.129944,691.417847 
	C580.918274,696.973572 580.049255,697.968567 574.492310,697.992004 
	C558.513062,698.059326 542.533325,698.024475 526.554077,698.097839 
	C520.985535,698.123413 520.426392,699.060547 522.441650,704.299377 
	C527.426147,717.257080 540.846130,724.110596 555.985229,721.369934 
	C562.422241,720.204590 568.560303,718.226624 574.000122,714.421631 
	C575.700562,713.232178 577.666626,712.266174 579.357422,714.255859 
	C581.104248,716.311523 580.202148,718.272644 578.535889,719.994446 
	C561.530334,737.567078 524.063171,730.119263 515.670532,707.309570 
	C511.078583,694.829407 512.304993,682.920959 521.943665,673.028625 
	C532.136963,662.567139 544.641113,660.647461 558.309631,664.500488 
	C560.369263,665.081116 562.282104,666.182373 564.576904,667.242310 
M522.570618,685.117798 
	C520.453064,689.120422 521.463989,690.790222 526.172974,690.737610 
	C540.165222,690.581116 554.160583,690.702026 568.154541,690.667969 
	C569.577209,690.664490 571.212952,691.105286 572.246765,689.569153 
	C570.778320,680.279175 562.339966,672.196350 552.328857,670.464355 
	C539.756104,668.289185 529.289490,673.267456 522.570618,685.117798 
z"/>
<path fill="#000000" opacity="1.000000" stroke="none" 
	d="
M724.501038,612.438599 
	C722.765686,591.029114 724.352295,570.297302 727.821411,548.934326 
	C730.635437,551.538879 729.965149,554.017456 730.026978,556.233398 
	C730.815735,584.523071 731.010925,612.806824 730.598755,641.116211 
	C730.347473,658.373169 732.198486,675.643250 733.924988,692.861572 
	C734.720581,700.795288 734.933594,708.819824 734.865173,716.798462 
	C734.801758,724.196289 729.606018,728.385437 722.353149,727.640320 
	C699.510010,725.293335 676.600037,724.003662 653.653992,723.264709 
	C651.599915,723.198608 649.393982,723.583618 646.577820,721.613892 
	C653.202637,719.106384 659.335510,719.366150 665.238464,718.804749 
	C684.178711,717.003601 703.131897,716.987976 722.030212,719.544556 
	C725.152893,719.966980 726.870789,718.720032 726.992432,715.566589 
	C727.229431,709.425964 727.549744,703.282043 727.545227,697.139709 
	C727.530823,677.502686 728.436462,657.851013 726.677246,638.237549 
	C725.920105,629.796387 725.261841,621.346436 724.501038,612.438599 
z"/>
</svg>